<?xml version="1.0" encoding="utf-8" ?>
      <svg xmlns="http://www.w3.org/2000/svg" xmlns:xlink="http://www.w3.org/1999/xlink" width="260" height="16">
        <defs>
          <style>
            <![CDATA[
              .bar { display: none; }
              .bar:target { display: inline; }
            ]]>
          </style>
        </defs>
        <g class="bar" id="cold-start_wasm">
    <clipPath id="cl_3">
		<path d="M10 16L25.125 16L25.125 0L10 0L10 16ZM25.625 0L25.625 16L40.75 16L40.75 0L25.625 0ZM41.25 0L41.25 16L56.375 16L56.375 0L41.25 0Z" clip-rule="evenodd"/>
	</clipPath>
	<g clip-path="url(#cl_3)">
		<path fill="#59A14F" d="M10 4L48.395683 4L48.395683 20L10 20L10 4Z"/>
	</g>
</g>
<g class="bar" id="cold-start_canvas">
    <clipPath id="cl_4">
		<path d="M10 16L25.125 16L25.125 0L10 0L10 16ZM25.625 0L25.625 16L40.75 16L40.75 0L25.625 0ZM41.25 0L41.25 16L56.375 16L56.375 0L41.25 0ZM56.875 0L56.875 16L72 16L72 0L56.875 0ZM72.5 0L72.5 16L87.625 16L87.625 0L72.5 0ZM88.125 0L88.125 16L103.25 16L103.25 0L88.125 0ZM103.75 0L103.75 16L118.875 16L118.875 0L103.75 0ZM119.375 0L119.375 16L134.5 16L134.5 0L119.375 0ZM135 0L135 16L150.125 16L150.125 0L135 0Z" clip-rule="evenodd"/>
	</clipPath>
	<g clip-path="url(#cl_4)">
		<path fill="#E15759" d="M10 4L146.88472 4L146.88472 20L10 20L10 4Z"/>
	</g>
</g>
<g class="bar" id="cold-start_napi">
    <clipPath id="cl_5">
		<path d="M10 16L25.125 16L25.125 0L10 0L10 16ZM25.625 0L25.625 16L40.75 16L40.75 0L25.625 0ZM41.25 0L41.25 16L56.375 16L56.375 0L41.25 0ZM56.875 0L56.875 16L72 16L72 0L56.875 0ZM72.5 0L72.5 16L87.625 16L87.625 0L72.5 0ZM88.125 0L88.125 16L103.25 16L103.25 0L88.125 0ZM103.75 0L103.75 16L118.875 16L118.875 0L103.75 0ZM119.375 0L119.375 16L134.5 16L134.5 0L119.375 0Z" clip-rule="evenodd"/>
	</clipPath>
	<g clip-path="url(#cl_5)">
		<path fill="#EDC949" d="M10 4L124.1328 4L124.1328 20L10 20L10 4Z"/>
	</g>
</g>
<g class="bar" id="cold-start_skia-sync">
    <clipPath id="cl_6">
		<rect x="10" width="15.125" height="16"/>
	</clipPath>
	<g clip-path="url(#cl_6)">
		<path fill="#4E79A7" d="M10 4L10.515277 4L10.515277 20L10 20L10 4Z"/>
	</g>
</g>
<g class="bar" id="house_wasm">
    <clipPath id="cl_7">
		<path d="M10 16L25.125 16L25.125 0L10 0L10 16ZM25.625 0L25.625 16L40.75 16L40.75 0L25.625 0ZM41.25 0L41.25 16L56.375 16L56.375 0L41.25 0ZM56.875 0L56.875 16L72 16L72 0L56.875 0ZM72.5 0L72.5 16L87.625 16L87.625 0L72.5 0Z" clip-rule="evenodd"/>
	</clipPath>
	<g clip-path="url(#cl_7)">
		<path fill="#59A14F" d="M10 4L79.81424 4L79.81424 20L10 20L10 4Z"/>
	</g>
</g>
<g class="bar" id="house_canvas">
    <clipPath id="cl_8">
		<path d="M10 16L25.125 16L25.125 0L10 0L10 16ZM25.625 0L25.625 16L40.75 16L40.75 0L25.625 0ZM41.25 0L41.25 16L56.375 16L56.375 0L41.25 0ZM56.875 0L56.875 16L72 16L72 0L56.875 0Z" clip-rule="evenodd"/>
	</clipPath>
	<g clip-path="url(#cl_8)">
		<path fill="#E15759" d="M10 4L61.426868 4L61.426868 20L10 20L10 4Z"/>
	</g>
</g>
<g class="bar" id="house_napi">
    <clipPath id="cl_9">
		<path d="M10 16L25.125 16L25.125 0L10 0L10 16ZM25.625 0L25.625 16L40.75 16L40.75 0L25.625 0ZM41.25 0L41.25 16L56.375 16L56.375 0L41.25 0Z" clip-rule="evenodd"/>
	</clipPath>
	<g clip-path="url(#cl_9)">
		<path fill="#EDC949" d="M10 4L54.926067 4L54.926067 20L10 20L10 4Z"/>
	</g>
</g>
<g class="bar" id="house_skia-sync">
    <clipPath id="cl_a">
		<path d="M10 16L25.125 16L25.125 0L10 0L10 16ZM25.625 0L25.625 16L40.75 16L40.75 0L25.625 0ZM41.25 0L41.25 16L56.375 16L56.375 0L41.25 0ZM56.875 0L56.875 16L72 16L72 0L56.875 0Z" clip-rule="evenodd"/>
	</clipPath>
	<g clip-path="url(#cl_a)">
		<path fill="#4E79A7" d="M10 4L60.223469 4L60.223469 20L10 20L10 4Z"/>
	</g>
</g>
<g class="bar" id="house_skia-async">
    <clipPath id="cl_b">
		<rect x="10" width="15.125" height="16"/>
	</clipPath>
	<g clip-path="url(#cl_b)">
		<path fill="#76B7B2" d="M10 4L19.646263 4L19.646263 20L10 20L10 4Z"/>
	</g>
</g>
<g class="bar" id="path2d_wasm">
    <clipPath id="cl_c">
		<path d="M10 16L25.125 16L25.125 0L10 0L10 16ZM25.625 0L25.625 16L40.75 16L40.75 0L25.625 0ZM41.25 0L41.25 16L56.375 16L56.375 0L41.25 0ZM56.875 0L56.875 16L72 16L72 0L56.875 0ZM72.5 0L72.5 16L87.625 16L87.625 0L72.5 0ZM88.125 0L88.125 16L103.25 16L103.25 0L88.125 0ZM103.75 0L103.75 16L118.875 16L118.875 0L103.75 0ZM119.375 0L119.375 16L134.5 16L134.5 0L119.375 0Z" clip-rule="evenodd"/>
	</clipPath>
	<g clip-path="url(#cl_c)">
		<path fill="#59A14F" d="M10 4L130.72766 4L130.72766 20L10 20L10 4Z"/>
	</g>
</g>
<g class="bar" id="path2d_canvas">
    <clipPath id="cl_d">
		<path d="M10 16L25.125 16L25.125 0L10 0L10 16ZM25.625 0L25.625 16L40.75 16L40.75 0L25.625 0ZM41.25 0L41.25 16L56.375 16L56.375 0L41.25 0ZM56.875 0L56.875 16L72 16L72 0L56.875 0ZM72.5 0L72.5 16L87.625 16L87.625 0L72.5 0ZM88.125 0L88.125 16L103.25 16L103.25 0L88.125 0ZM103.75 0L103.75 16L118.875 16L118.875 0L103.75 0ZM119.375 0L119.375 16L134.5 16L134.5 0L119.375 0ZM135 0L135 16L150.125 16L150.125 0L135 0ZM150.625 0L150.625 16L165.75 16L165.75 0L150.625 0ZM166.25 0L166.25 16L181.375 16L181.375 0L166.25 0ZM181.875 0L181.875 16L197 16L197 0L181.875 0ZM197.5 0L197.5 16L212.625 16L212.625 0L197.5 0ZM213.125 0L213.125 16L228.25 16L228.25 0L213.125 0ZM228.75 0L228.75 16L243.875 16L243.875 0L228.75 0ZM244.375 0L244.375 16L259.5 16L259.5 0L244.375 0Z" clip-rule="evenodd"/>
	</clipPath>
	<g clip-path="url(#cl_d)">
		<path fill="#E15759" d="M10 4L245.38771 4L245.38771 20L10 20L10 4Z"/>
	</g>
</g>
<g class="bar" id="path2d_napi">
    <clipPath id="cl_e">
		<path d="M10 16L25.125 16L25.125 0L10 0L10 16ZM25.625 0L25.625 16L40.75 16L40.75 0L25.625 0ZM41.25 0L41.25 16L56.375 16L56.375 0L41.25 0ZM56.875 0L56.875 16L72 16L72 0L56.875 0ZM72.5 0L72.5 16L87.625 16L87.625 0L72.5 0ZM88.125 0L88.125 16L103.25 16L103.25 0L88.125 0ZM103.75 0L103.75 16L118.875 16L118.875 0L103.75 0ZM119.375 0L119.375 16L134.5 16L134.5 0L119.375 0ZM135 0L135 16L150.125 16L150.125 0L135 0ZM150.625 0L150.625 16L165.75 16L165.75 0L150.625 0Z" clip-rule="evenodd"/>
	</clipPath>
	<g clip-path="url(#cl_e)">
		<path fill="#EDC949" d="M10 4L162.23744 4L162.23744 20L10 20L10 4Z"/>
	</g>
</g>
<g class="bar" id="path2d_skia-sync">
    <clipPath id="cl_f">
		<path d="M10 16L25.125 16L25.125 0L10 0L10 16ZM25.625 0L25.625 16L40.75 16L40.75 0L25.625 0ZM41.25 0L41.25 16L56.375 16L56.375 0L41.25 0ZM56.875 0L56.875 16L72 16L72 0L56.875 0ZM72.5 0L72.5 16L87.625 16L87.625 0L72.5 0ZM88.125 0L88.125 16L103.25 16L103.25 0L88.125 0ZM103.75 0L103.75 16L118.875 16L118.875 0L103.75 0ZM119.375 0L119.375 16L134.5 16L134.5 0L119.375 0Z" clip-rule="evenodd"/>
	</clipPath>
	<g clip-path="url(#cl_f)">
		<path fill="#4E79A7" d="M10 4L129.45135 4L129.45135 20L10 20L10 4Z"/>
	</g>
</g>
<g class="bar" id="path2d_skia-async">
    <clipPath id="cl_10">
		<path d="M10 16L25.125 16L25.125 0L10 0L10 16ZM25.625 0L25.625 16L40.75 16L40.75 0L25.625 0Z" clip-rule="evenodd"/>
	</clipPath>
	<g clip-path="url(#cl_10)">
		<path fill="#76B7B2" d="M10 4L31.512835 4L31.512835 20L10 20L10 4Z"/>
	</g>
</g>
<g class="bar" id="beziers_wasm">
    <clipPath id="cl_11">
		<path d="M10 16L25.125 16L25.125 0L10 0L10 16ZM25.625 0L25.625 16L40.75 16L40.75 0L25.625 0ZM41.25 0L41.25 16L56.375 16L56.375 0L41.25 0ZM56.875 0L56.875 16L72 16L72 0L56.875 0ZM72.5 0L72.5 16L87.625 16L87.625 0L72.5 0ZM88.125 0L88.125 16L103.25 16L103.25 0L88.125 0ZM103.75 0L103.75 16L118.875 16L118.875 0L103.75 0ZM119.375 0L119.375 16L134.5 16L134.5 0L119.375 0ZM135 0L135 16L150.125 16L150.125 0L135 0ZM150.625 0L150.625 16L165.75 16L165.75 0L150.625 0ZM166.25 0L166.25 16L181.375 16L181.375 0L166.25 0ZM181.875 0L181.875 16L197 16L197 0L181.875 0ZM197.5 0L197.5 16L212.625 16L212.625 0L197.5 0ZM213.125 0L213.125 16L228.25 16L228.25 0L213.125 0ZM228.75 0L228.75 16L243.875 16L243.875 0L228.75 0ZM244.375 0L244.375 16L259.5 16L259.5 0L244.375 0Z" clip-rule="evenodd"/>
	</clipPath>
	<g clip-path="url(#cl_11)">
		<path fill="#59A14F" d="M10 4L256.48328 4L256.48328 20L10 20L10 4Z"/>
	</g>
</g>
<g class="bar" id="beziers_canvas">
    <clipPath id="cl_12">
		<path d="M10 16L25.125 16L25.125 0L10 0L10 16ZM25.625 0L25.625 16L40.75 16L40.75 0L25.625 0ZM41.25 0L41.25 16L56.375 16L56.375 0L41.25 0ZM56.875 0L56.875 16L72 16L72 0L56.875 0ZM72.5 0L72.5 16L87.625 16L87.625 0L72.5 0ZM88.125 0L88.125 16L103.25 16L103.25 0L88.125 0ZM103.75 0L103.75 16L118.875 16L118.875 0L103.75 0ZM119.375 0L119.375 16L134.5 16L134.5 0L119.375 0ZM135 0L135 16L150.125 16L150.125 0L135 0ZM150.625 0L150.625 16L165.75 16L165.75 0L150.625 0Z" clip-rule="evenodd"/>
	</clipPath>
	<g clip-path="url(#cl_12)">
		<path fill="#E15759" d="M10 4L162.56201 4L162.56201 20L10 20L10 4Z"/>
	</g>
</g>
<g class="bar" id="beziers_napi">
    <clipPath id="cl_13">
		<path d="M10 16L25.125 16L25.125 0L10 0L10 16ZM25.625 0L25.625 16L40.75 16L40.75 0L25.625 0ZM41.25 0L41.25 16L56.375 16L56.375 0L41.25 0ZM56.875 0L56.875 16L72 16L72 0L56.875 0ZM72.5 0L72.5 16L87.625 16L87.625 0L72.5 0Z" clip-rule="evenodd"/>
	</clipPath>
	<g clip-path="url(#cl_13)">
		<path fill="#EDC949" d="M10 4L82.6847 4L82.6847 20L10 20L10 4Z"/>
	</g>
</g>
<g class="bar" id="beziers_skia-sync">
    <clipPath id="cl_14">
		<path d="M10 16L25.125 16L25.125 0L10 0L10 16ZM25.625 0L25.625 16L40.75 16L40.75 0L25.625 0ZM41.25 0L41.25 16L56.375 16L56.375 0L41.25 0Z" clip-rule="evenodd"/>
	</clipPath>
	<g clip-path="url(#cl_14)">
		<path fill="#4E79A7" d="M10 4L52.778511 4L52.778511 20L10 20L10 4Z"/>
	</g>
</g>
<g class="bar" id="beziers_skia-async">
    <clipPath id="cl_15">
		<rect x="10" width="15.125" height="16"/>
	</clipPath>
	<g clip-path="url(#cl_15)">
		<path fill="#76B7B2" d="M10 4L18.720125 4L18.720125 20L10 20L10 4Z"/>
	</g>
</g>
<g class="bar" id="from-svg_canvas">
    <clipPath id="cl_16">
		<path d="M10 16L25.125 16L25.125 0L10 0L10 16ZM25.625 0L25.625 16L40.75 16L40.75 0L25.625 0ZM41.25 0L41.25 16L56.375 16L56.375 0L41.25 0ZM56.875 0L56.875 16L72 16L72 0L56.875 0ZM72.5 0L72.5 16L87.625 16L87.625 0L72.5 0ZM88.125 0L88.125 16L103.25 16L103.25 0L88.125 0ZM103.75 0L103.75 16L118.875 16L118.875 0L103.75 0ZM119.375 0L119.375 16L134.5 16L134.5 0L119.375 0ZM135 0L135 16L150.125 16L150.125 0L135 0ZM150.625 0L150.625 16L165.75 16L165.75 0L150.625 0ZM166.25 0L166.25 16L181.375 16L181.375 0L166.25 0ZM181.875 0L181.875 16L197 16L197 0L181.875 0ZM197.5 0L197.5 16L212.625 16L212.625 0L197.5 0Z" clip-rule="evenodd"/>
	</clipPath>
	<g clip-path="url(#cl_16)">
		<path fill="#E15759" d="M10 4L200.57124 4L200.57124 20L10 20L10 4Z"/>
	</g>
</g>
<g class="bar" id="from-svg_napi">
    <clipPath id="cl_17">
		<path d="M10 16L25.125 16L25.125 0L10 0L10 16ZM25.625 0L25.625 16L40.75 16L40.75 0L25.625 0ZM41.25 0L41.25 16L56.375 16L56.375 0L41.25 0ZM56.875 0L56.875 16L72 16L72 0L56.875 0ZM72.5 0L72.5 16L87.625 16L87.625 0L72.5 0ZM88.125 0L88.125 16L103.25 16L103.25 0L88.125 0ZM103.75 0L103.75 16L118.875 16L118.875 0L103.75 0ZM119.375 0L119.375 16L134.5 16L134.5 0L119.375 0ZM135 0L135 16L150.125 16L150.125 0L135 0ZM150.625 0L150.625 16L165.75 16L165.75 0L150.625 0Z" clip-rule="evenodd"/>
	</clipPath>
	<g clip-path="url(#cl_17)">
		<path fill="#EDC949" d="M10 4L162.5134 4L162.5134 20L10 20L10 4Z"/>
	</g>
</g>
<g class="bar" id="from-svg_skia-sync">
    <clipPath id="cl_18">
		<path d="M10 16L25.125 16L25.125 0L10 0L10 16ZM25.625 0L25.625 16L40.75 16L40.75 0L25.625 0ZM41.25 0L41.25 16L56.375 16L56.375 0L41.25 0ZM56.875 0L56.875 16L72 16L72 0L56.875 0ZM72.5 0L72.5 16L87.625 16L87.625 0L72.5 0ZM88.125 0L88.125 16L103.25 16L103.25 0L88.125 0Z" clip-rule="evenodd"/>
	</clipPath>
	<g clip-path="url(#cl_18)">
		<path fill="#4E79A7" d="M10 4L102.27663 4L102.27663 20L10 20L10 4Z"/>
	</g>
</g>
<g class="bar" id="from-svg_skia-async">
    <clipPath id="cl_19">
		<path d="M10 16L25.125 16L25.125 0L10 0L10 16ZM25.625 0L25.625 16L40.75 16L40.75 0L25.625 0Z" clip-rule="evenodd"/>
	</clipPath>
	<g clip-path="url(#cl_19)">
		<path fill="#76B7B2" d="M10 4L26.563313 4L26.563313 20L10 20L10 4Z"/>
	</g>
</g>
<g class="bar" id="to-svg_canvas">
    <clipPath id="cl_1a">
		<path d="M10 16L25.125 16L25.125 0L10 0L10 16ZM25.625 0L25.625 16L40.75 16L40.75 0L25.625 0ZM41.25 0L41.25 16L56.375 16L56.375 0L41.25 0ZM56.875 0L56.875 16L72 16L72 0L56.875 0ZM72.5 0L72.5 16L87.625 16L87.625 0L72.5 0ZM88.125 0L88.125 16L103.25 16L103.25 0L88.125 0ZM103.75 0L103.75 16L118.875 16L118.875 0L103.75 0Z" clip-rule="evenodd"/>
	</clipPath>
	<g clip-path="url(#cl_1a)">
		<path fill="#E15759" d="M10 4L112.7533 4L112.7533 20L10 20L10 4Z"/>
	</g>
</g>
<g class="bar" id="to-svg_napi">
    <clipPath id="cl_1b">
		<path d="M10 16L25.125 16L25.125 0L10 0L10 16ZM25.625 0L25.625 16L40.75 16L40.75 0L25.625 0ZM41.25 0L41.25 16L56.375 16L56.375 0L41.25 0ZM56.875 0L56.875 16L72 16L72 0L56.875 0ZM72.5 0L72.5 16L87.625 16L87.625 0L72.5 0ZM88.125 0L88.125 16L103.25 16L103.25 0L88.125 0ZM103.75 0L103.75 16L118.875 16L118.875 0L103.75 0Z" clip-rule="evenodd"/>
	</clipPath>
	<g clip-path="url(#cl_1b)">
		<path fill="#EDC949" d="M10 4L118.89333 4L118.89333 20L10 20L10 4Z"/>
	</g>
</g>
<g class="bar" id="to-svg_skia-sync">
    <clipPath id="cl_1c">
		<rect x="10" width="15.125" height="16"/>
	</clipPath>
	<g clip-path="url(#cl_1c)">
		<path fill="#4E79A7" d="M10 4L21.265936 4L21.265936 20L10 20L10 4Z"/>
	</g>
</g>
<g class="bar" id="to-svg_skia-async">
    <clipPath id="cl_1d">
		<rect x="10" width="15.125" height="16"/>
	</clipPath>
	<g clip-path="url(#cl_1d)">
		<path fill="#76B7B2" d="M10 4L19.680687 4L19.680687 20L10 20L10 4Z"/>
	</g>
</g>
<g class="bar" id="to-pdf_canvas">
    <clipPath id="cl_1e">
		<path d="M10 16L25.125 16L25.125 0L10 0L10 16ZM25.625 0L25.625 16L40.75 16L40.75 0L25.625 0ZM41.25 0L41.25 16L56.375 16L56.375 0L41.25 0ZM56.875 0L56.875 16L72 16L72 0L56.875 0ZM72.5 0L72.5 16L87.625 16L87.625 0L72.5 0ZM88.125 0L88.125 16L103.25 16L103.25 0L88.125 0Z" clip-rule="evenodd"/>
	</clipPath>
	<g clip-path="url(#cl_1e)">
		<path fill="#E15759" d="M10 4L93.860832 4L93.860832 20L10 20L10 4Z"/>
	</g>
</g>
<g class="bar" id="to-pdf_skia-sync">
    <clipPath id="cl_1f">
		<rect x="10" width="15.125" height="16"/>
	</clipPath>
	<g clip-path="url(#cl_1f)">
		<path fill="#4E79A7" d="M10 4L24.893488 4L24.893488 20L10 20L10 4Z"/>
	</g>
</g>
<g class="bar" id="to-pdf_skia-async">
    <clipPath id="cl_20">
		<rect x="10" width="15.125" height="16"/>
	</clipPath>
	<g clip-path="url(#cl_20)">
		<path fill="#76B7B2" d="M10 4L14.867891 4L14.867891 20L10 20L10 4Z"/>
	</g>
</g>
<g class="bar" id="image-blit_wasm">
    <clipPath id="cl_21">
		<path d="M10 16L25.125 16L25.125 0L10 0L10 16ZM25.625 0L25.625 16L40.75 16L40.75 0L25.625 0ZM41.25 0L41.25 16L56.375 16L56.375 0L41.25 0ZM56.875 0L56.875 16L72 16L72 0L56.875 0ZM72.5 0L72.5 16L87.625 16L87.625 0L72.5 0ZM88.125 0L88.125 16L103.25 16L103.25 0L88.125 0ZM103.75 0L103.75 16L118.875 16L118.875 0L103.75 0ZM119.375 0L119.375 16L134.5 16L134.5 0L119.375 0ZM135 0L135 16L150.125 16L150.125 0L135 0ZM150.625 0L150.625 16L165.75 16L165.75 0L150.625 0ZM166.25 0L166.25 16L181.375 16L181.375 0L166.25 0ZM181.875 0L181.875 16L197 16L197 0L181.875 0ZM197.5 0L197.5 16L212.625 16L212.625 0L197.5 0ZM213.125 0L213.125 16L228.25 16L228.25 0L213.125 0Z" clip-rule="evenodd"/>
	</clipPath>
	<g clip-path="url(#cl_21)">
		<path fill="#59A14F" d="M10 4L228.041 4L228.041 20L10 20L10 4Z"/>
	</g>
</g>
<g class="bar" id="image-blit_canvas">
    <clipPath id="cl_22">
		<path d="M10 16L25.125 16L25.125 0L10 0L10 16ZM25.625 0L25.625 16L40.75 16L40.75 0L25.625 0ZM41.25 0L41.25 16L56.375 16L56.375 0L41.25 0ZM56.875 0L56.875 16L72 16L72 0L56.875 0ZM72.5 0L72.5 16L87.625 16L87.625 0L72.5 0ZM88.125 0L88.125 16L103.25 16L103.25 0L88.125 0ZM103.75 0L103.75 16L118.875 16L118.875 0L103.75 0ZM119.375 0L119.375 16L134.5 16L134.5 0L119.375 0ZM135 0L135 16L150.125 16L150.125 0L135 0ZM150.625 0L150.625 16L165.75 16L165.75 0L150.625 0ZM166.25 0L166.25 16L181.375 16L181.375 0L166.25 0ZM181.875 0L181.875 16L197 16L197 0L181.875 0ZM197.5 0L197.5 16L212.625 16L212.625 0L197.5 0ZM213.125 0L213.125 16L228.25 16L228.25 0L213.125 0ZM228.75 0L228.75 16L243.875 16L243.875 0L228.75 0Z" clip-rule="evenodd"/>
	</clipPath>
	<g clip-path="url(#cl_22)">
		<path fill="#E15759" d="M10 4L232.08917 4L232.08917 20L10 20L10 4Z"/>
	</g>
</g>
<g class="bar" id="image-blit_napi">
    <clipPath id="cl_23">
		<path d="M10 16L25.125 16L25.125 0L10 0L10 16ZM25.625 0L25.625 16L40.75 16L40.75 0L25.625 0ZM41.25 0L41.25 16L56.375 16L56.375 0L41.25 0ZM56.875 0L56.875 16L72 16L72 0L56.875 0ZM72.5 0L72.5 16L87.625 16L87.625 0L72.5 0ZM88.125 0L88.125 16L103.25 16L103.25 0L88.125 0Z" clip-rule="evenodd"/>
	</clipPath>
	<g clip-path="url(#cl_23)">
		<path fill="#EDC949" d="M10 4L100.29617 4L100.29617 20L10 20L10 4Z"/>
	</g>
</g>
<g class="bar" id="image-blit_skia-sync">
    <clipPath id="cl_24">
		<path d="M10 16L25.125 16L25.125 0L10 0L10 16ZM25.625 0L25.625 16L40.75 16L40.75 0L25.625 0ZM41.25 0L41.25 16L56.375 16L56.375 0L41.25 0ZM56.875 0L56.875 16L72 16L72 0L56.875 0ZM72.5 0L72.5 16L87.625 16L87.625 0L72.5 0ZM88.125 0L88.125 16L103.25 16L103.25 0L88.125 0Z" clip-rule="evenodd"/>
	</clipPath>
	<g clip-path="url(#cl_24)">
		<path fill="#4E79A7" d="M10 4L88.34523 4L88.34523 20L10 20L10 4Z"/>
	</g>
</g>
<g class="bar" id="image-blit_skia-async">
    <clipPath id="cl_25">
		<rect x="10" width="15.125" height="16"/>
	</clipPath>
	<g clip-path="url(#cl_25)">
		<path fill="#76B7B2" d="M10 4L24.634581 4L24.634581 20L10 20L10 4Z"/>
	</g>
</g>
<g class="bar" id="image-rw_canvas">
    <clipPath id="cl_26">
		<path d="M10 16L25.125 16L25.125 0L10 0L10 16ZM25.625 0L25.625 16L40.75 16L40.75 0L25.625 0ZM41.25 0L41.25 16L56.375 16L56.375 0L41.25 0ZM56.875 0L56.875 16L72 16L72 0L56.875 0ZM72.5 0L72.5 16L87.625 16L87.625 0L72.5 0ZM88.125 0L88.125 16L103.25 16L103.25 0L88.125 0ZM103.75 0L103.75 16L118.875 16L118.875 0L103.75 0ZM119.375 0L119.375 16L134.5 16L134.5 0L119.375 0ZM135 0L135 16L150.125 16L150.125 0L135 0ZM150.625 0L150.625 16L165.75 16L165.75 0L150.625 0ZM166.25 0L166.25 16L181.375 16L181.375 0L166.25 0Z" clip-rule="evenodd"/>
	</clipPath>
	<g clip-path="url(#cl_26)">
		<path fill="#E15759" d="M10 4L168.19173 4L168.19173 20L10 20L10 4Z"/>
	</g>
</g>
<g class="bar" id="image-rw_napi">
    <clipPath id="cl_27">
		<path d="M10 16L25.125 16L25.125 0L10 0L10 16ZM25.625 0L25.625 16L40.75 16L40.75 0L25.625 0ZM41.25 0L41.25 16L56.375 16L56.375 0L41.25 0ZM56.875 0L56.875 16L72 16L72 0L56.875 0ZM72.5 0L72.5 16L87.625 16L87.625 0L72.5 0ZM88.125 0L88.125 16L103.25 16L103.25 0L88.125 0ZM103.75 0L103.75 16L118.875 16L118.875 0L103.75 0Z" clip-rule="evenodd"/>
	</clipPath>
	<g clip-path="url(#cl_27)">
		<path fill="#EDC949" d="M10 4L108.21091 4L108.21091 20L10 20L10 4Z"/>
	</g>
</g>
<g class="bar" id="image-rw_skia-sync">
    <clipPath id="cl_28">
		<path d="M10 16L25.125 16L25.125 0L10 0L10 16ZM25.625 0L25.625 16L40.75 16L40.75 0L25.625 0ZM41.25 0L41.25 16L56.375 16L56.375 0L41.25 0ZM56.875 0L56.875 16L72 16L72 0L56.875 0ZM72.5 0L72.5 16L87.625 16L87.625 0L72.5 0ZM88.125 0L88.125 16L103.25 16L103.25 0L88.125 0ZM103.75 0L103.75 16L118.875 16L118.875 0L103.75 0ZM119.375 0L119.375 16L134.5 16L134.5 0L119.375 0ZM135 0L135 16L150.125 16L150.125 0L135 0ZM150.625 0L150.625 16L165.75 16L165.75 0L150.625 0Z" clip-rule="evenodd"/>
	</clipPath>
	<g clip-path="url(#cl_28)">
		<path fill="#4E79A7" d="M10 4L164.87512 4L164.87512 20L10 20L10 4Z"/>
	</g>
</g>
<g class="bar" id="image-rw_skia-async">
    <clipPath id="cl_29">
		<path d="M10 16L25.125 16L25.125 0L10 0L10 16ZM25.625 0L25.625 16L40.75 16L40.75 0L25.625 0ZM41.25 0L41.25 16L56.375 16L56.375 0L41.25 0ZM56.875 0L56.875 16L72 16L72 0L56.875 0ZM72.5 0L72.5 16L87.625 16L87.625 0L72.5 0ZM88.125 0L88.125 16L103.25 16L103.25 0L88.125 0ZM103.75 0L103.75 16L118.875 16L118.875 0L103.75 0ZM119.375 0L119.375 16L134.5 16L134.5 0L119.375 0ZM135 0L135 16L150.125 16L150.125 0L135 0Z" clip-rule="evenodd"/>
	</clipPath>
	<g clip-path="url(#cl_29)">
		<path fill="#76B7B2" d="M10 4L138.85988 4L138.85988 20L10 20L10 4Z"/>
	</g>
</g>
<g class="bar" id="gradients_wasm">
    <clipPath id="cl_2a">
		<path d="M10 16L25.125 16L25.125 0L10 0L10 16ZM25.625 0L25.625 16L40.75 16L40.75 0L25.625 0ZM41.25 0L41.25 16L56.375 16L56.375 0L41.25 0ZM56.875 0L56.875 16L72 16L72 0L56.875 0ZM72.5 0L72.5 16L87.625 16L87.625 0L72.5 0ZM88.125 0L88.125 16L103.25 16L103.25 0L88.125 0ZM103.75 0L103.75 16L118.875 16L118.875 0L103.75 0ZM119.375 0L119.375 16L134.5 16L134.5 0L119.375 0ZM135 0L135 16L150.125 16L150.125 0L135 0ZM150.625 0L150.625 16L165.75 16L165.75 0L150.625 0ZM166.25 0L166.25 16L181.375 16L181.375 0L166.25 0ZM181.875 0L181.875 16L197 16L197 0L181.875 0ZM197.5 0L197.5 16L212.625 16L212.625 0L197.5 0ZM213.125 0L213.125 16L228.25 16L228.25 0L213.125 0ZM228.75 0L228.75 16L243.875 16L243.875 0L228.75 0Z" clip-rule="evenodd"/>
	</clipPath>
	<g clip-path="url(#cl_2a)">
		<path fill="#59A14F" d="M10 4L239.29936 4L239.29936 20L10 20L10 4Z"/>
	</g>
</g>
<g class="bar" id="gradients_canvas">
    <clipPath id="cl_2b">
		<path d="M10 16L25.125 16L25.125 0L10 0L10 16ZM25.625 0L25.625 16L40.75 16L40.75 0L25.625 0ZM41.25 0L41.25 16L56.375 16L56.375 0L41.25 0ZM56.875 0L56.875 16L72 16L72 0L56.875 0ZM72.5 0L72.5 16L87.625 16L87.625 0L72.5 0ZM88.125 0L88.125 16L103.25 16L103.25 0L88.125 0ZM103.75 0L103.75 16L118.875 16L118.875 0L103.75 0ZM119.375 0L119.375 16L134.5 16L134.5 0L119.375 0Z" clip-rule="evenodd"/>
	</clipPath>
	<g clip-path="url(#cl_2b)">
		<path fill="#E15759" d="M10 4L131.20363 4L131.20363 20L10 20L10 4Z"/>
	</g>
</g>
<g class="bar" id="gradients_napi">
    <clipPath id="cl_2c">
		<path d="M10 16L25.125 16L25.125 0L10 0L10 16ZM25.625 0L25.625 16L40.75 16L40.75 0L25.625 0ZM41.25 0L41.25 16L56.375 16L56.375 0L41.25 0ZM56.875 0L56.875 16L72 16L72 0L56.875 0ZM72.5 0L72.5 16L87.625 16L87.625 0L72.5 0ZM88.125 0L88.125 16L103.25 16L103.25 0L88.125 0ZM103.75 0L103.75 16L118.875 16L118.875 0L103.75 0Z" clip-rule="evenodd"/>
	</clipPath>
	<g clip-path="url(#cl_2c)">
		<path fill="#EDC949" d="M10 4L118.00317 4L118.00317 20L10 20L10 4Z"/>
	</g>
</g>
<g class="bar" id="gradients_skia-sync">
    <clipPath id="cl_2d">
		<path d="M10 16L25.125 16L25.125 0L10 0L10 16ZM25.625 0L25.625 16L40.75 16L40.75 0L25.625 0ZM41.25 0L41.25 16L56.375 16L56.375 0L41.25 0ZM56.875 0L56.875 16L72 16L72 0L56.875 0ZM72.5 0L72.5 16L87.625 16L87.625 0L72.5 0ZM88.125 0L88.125 16L103.25 16L103.25 0L88.125 0ZM103.75 0L103.75 16L118.875 16L118.875 0L103.75 0ZM119.375 0L119.375 16L134.5 16L134.5 0L119.375 0Z" clip-rule="evenodd"/>
	</clipPath>
	<g clip-path="url(#cl_2d)">
		<path fill="#4E79A7" d="M10 4L128.08359 4L128.08359 20L10 20L10 4Z"/>
	</g>
</g>
<g class="bar" id="gradients_skia-async">
    <clipPath id="cl_2e">
		<path d="M10 16L25.125 16L25.125 0L10 0L10 16ZM25.625 0L25.625 16L40.75 16L40.75 0L25.625 0Z" clip-rule="evenodd"/>
	</clipPath>
	<g clip-path="url(#cl_2e)">
		<path fill="#76B7B2" d="M10 4L30.501911 4L30.501911 20L10 20L10 4Z"/>
	</g>
</g>
<g class="bar" id="text_wasm">
    <clipPath id="cl_2f">
		<path d="M10 16L25.125 16L25.125 0L10 0L10 16ZM25.625 0L25.625 16L40.75 16L40.75 0L25.625 0ZM41.25 0L41.25 16L56.375 16L56.375 0L41.25 0ZM56.875 0L56.875 16L72 16L72 0L56.875 0ZM72.5 0L72.5 16L87.625 16L87.625 0L72.5 0Z" clip-rule="evenodd"/>
	</clipPath>
	<g clip-path="url(#cl_2f)">
		<path fill="#59A14F" d="M10 4L83.985756 4L83.985756 20L10 20L10 4Z"/>
	</g>
</g>
<g class="bar" id="text_canvas">
    <clipPath id="cl_30">
		<path d="M10 16L25.125 16L25.125 0L10 0L10 16ZM25.625 0L25.625 16L40.75 16L40.75 0L25.625 0ZM41.25 0L41.25 16L56.375 16L56.375 0L41.25 0ZM56.875 0L56.875 16L72 16L72 0L56.875 0ZM72.5 0L72.5 16L87.625 16L87.625 0L72.5 0Z" clip-rule="evenodd"/>
	</clipPath>
	<g clip-path="url(#cl_30)">
		<path fill="#E15759" d="M10 4L85.883934 4L85.883934 20L10 20L10 4Z"/>
	</g>
</g>
<g class="bar" id="text_napi">
    <clipPath id="cl_31">
		<path d="M10 16L25.125 16L25.125 0L10 0L10 16ZM25.625 0L25.625 16L40.75 16L40.75 0L25.625 0ZM41.25 0L41.25 16L56.375 16L56.375 0L41.25 0ZM56.875 0L56.875 16L72 16L72 0L56.875 0Z" clip-rule="evenodd"/>
	</clipPath>
	<g clip-path="url(#cl_31)">
		<path fill="#EDC949" d="M10 4L69.706375 4L69.706375 20L10 20L10 4Z"/>
	</g>
</g>
<g class="bar" id="text_skia-sync">
    <clipPath id="cl_32">
		<path d="M10 16L25.125 16L25.125 0L10 0L10 16ZM25.625 0L25.625 16L40.75 16L40.75 0L25.625 0ZM41.25 0L41.25 16L56.375 16L56.375 0L41.25 0ZM56.875 0L56.875 16L72 16L72 0L56.875 0ZM72.5 0L72.5 16L87.625 16L87.625 0L72.5 0Z" clip-rule="evenodd"/>
	</clipPath>
	<g clip-path="url(#cl_32)">
		<path fill="#4E79A7" d="M10 4L76.253487 4L76.253487 20L10 20L10 4Z"/>
	</g>
</g>
<g class="bar" id="text_skia-async">
    <clipPath id="cl_33">
		<rect x="10" width="15.125" height="16"/>
	</clipPath>
	<g clip-path="url(#cl_33)">
		<path fill="#76B7B2" d="M10 4L22.19841 4L22.19841 20L10 20L10 4Z"/>
	</g>
</g>
      </svg>