<?xml version="1.0" encoding="utf-8" ?>
      <svg xmlns="http://www.w3.org/2000/svg" xmlns:xlink="http://www.w3.org/1999/xlink" width="260" height="16">
        <defs>
          <style>
            <![CDATA[
              .bar { display: none; }
              .bar:target { display: inline; }
            ]]>
          </style>
        </defs>
        <g class="bar" id="cold-start_wasm">
    <clipPath id="cl_3">
		<path d="M10 16L25.125 16L25.125 0L10 0L10 16ZM25.625 0L25.625 16L40.75 16L40.75 0L25.625 0Z" clip-rule="evenodd"/>
	</clipPath>
	<g clip-path="url(#cl_3)">
		<path fill="#59A14F" d="M10 4L29.1399 4L29.1399 20L10 20L10 4Z"/>
	</g>
</g>
<g class="bar" id="cold-start_canvas">
    <clipPath id="cl_4">
		<path d="M10 16L25.125 16L25.125 0L10 0L10 16ZM25.625 0L25.625 16L40.75 16L40.75 0L25.625 0ZM41.25 0L41.25 16L56.375 16L56.375 0L41.25 0ZM56.875 0L56.875 16L72 16L72 0L56.875 0ZM72.5 0L72.5 16L87.625 16L87.625 0L72.5 0Z" clip-rule="evenodd"/>
	</clipPath>
	<g clip-path="url(#cl_4)">
		<path fill="#E15759" d="M10 4L86.858452 4L86.858452 20L10 20L10 4Z"/>
	</g>
</g>
<g class="bar" id="cold-start_napi">
    <clipPath id="cl_5">
		<path d="M10 16L25.125 16L25.125 0L10 0L10 16ZM25.625 0L25.625 16L40.75 16L40.75 0L25.625 0ZM41.25 0L41.25 16L56.375 16L56.375 0L41.25 0ZM56.875 0L56.875 16L72 16L72 0L56.875 0Z" clip-rule="evenodd"/>
	</clipPath>
	<g clip-path="url(#cl_5)">
		<path fill="#EDC949" d="M10 4L67.533279 4L67.533279 20L10 20L10 4Z"/>
	</g>
</g>
<g class="bar" id="cold-start_skia-sync">
    <clipPath id="cl_6">
		<rect x="10" width="15.125" height="16"/>
	</clipPath>
	<g clip-path="url(#cl_6)">
		<path fill="#4E79A7" d="M10 4L10.257195 4L10.257195 20L10 20L10 4Z"/>
	</g>
</g>
<g class="bar" id="house_wasm">
    <clipPath id="cl_7">
		<path d="M10 16L25.125 16L25.125 0L10 0L10 16ZM25.625 0L25.625 16L40.75 16L40.75 0L25.625 0ZM41.25 0L41.25 16L56.375 16L56.375 0L41.25 0ZM56.875 0L56.875 16L72 16L72 0L56.875 0ZM72.5 0L72.5 16L87.625 16L87.625 0L72.5 0Z" clip-rule="evenodd"/>
	</clipPath>
	<g clip-path="url(#cl_7)">
		<path fill="#59A14F" d="M10 4L79.855591 4L79.855591 20L10 20L10 4Z"/>
	</g>
</g>
<g class="bar" id="house_canvas">
    <clipPath id="cl_8">
		<path d="M10 16L25.125 16L25.125 0L10 0L10 16ZM25.625 0L25.625 16L40.75 16L40.75 0L25.625 0ZM41.25 0L41.25 16L56.375 16L56.375 0L41.25 0ZM56.875 0L56.875 16L72 16L72 0L56.875 0Z" clip-rule="evenodd"/>
	</clipPath>
	<g clip-path="url(#cl_8)">
		<path fill="#E15759" d="M10 4L61.263683 4L61.263683 20L10 20L10 4Z"/>
	</g>
</g>
<g class="bar" id="house_napi">
    <clipPath id="cl_9">
		<path d="M10 16L25.125 16L25.125 0L10 0L10 16ZM25.625 0L25.625 16L40.75 16L40.75 0L25.625 0ZM41.25 0L41.25 16L56.375 16L56.375 0L41.25 0Z" clip-rule="evenodd"/>
	</clipPath>
	<g clip-path="url(#cl_9)">
		<path fill="#EDC949" d="M10 4L54.831928 4L54.831928 20L10 20L10 4Z"/>
	</g>
</g>
<g class="bar" id="house_skia-sync">
    <clipPath id="cl_a">
		<path d="M10 16L25.125 16L25.125 0L10 0L10 16ZM25.625 0L25.625 16L40.75 16L40.75 0L25.625 0ZM41.25 0L41.25 16L56.375 16L56.375 0L41.25 0ZM56.875 0L56.875 16L72 16L72 0L56.875 0Z" clip-rule="evenodd"/>
	</clipPath>
	<g clip-path="url(#cl_a)">
		<path fill="#4E79A7" d="M10 4L60.345753 4L60.345753 20L10 20L10 4Z"/>
	</g>
</g>
<g class="bar" id="house_skia-async">
    <clipPath id="cl_b">
		<rect x="10" width="15.125" height="16"/>
	</clipPath>
	<g clip-path="url(#cl_b)">
		<path fill="#76B7B2" d="M10 4L19.513582 4L19.513582 20L10 20L10 4Z"/>
	</g>
</g>
<g class="bar" id="path2d_wasm">
    <clipPath id="cl_c">
		<path d="M10 16L25.125 16L25.125 0L10 0L10 16ZM25.625 0L25.625 16L40.75 16L40.75 0L25.625 0ZM41.25 0L41.25 16L56.375 16L56.375 0L41.25 0ZM56.875 0L56.875 16L72 16L72 0L56.875 0ZM72.5 0L72.5 16L87.625 16L87.625 0L72.5 0ZM88.125 0L88.125 16L103.25 16L103.25 0L88.125 0ZM103.75 0L103.75 16L118.875 16L118.875 0L103.75 0ZM119.375 0L119.375 16L134.5 16L134.5 0L119.375 0Z" clip-rule="evenodd"/>
	</clipPath>
	<g clip-path="url(#cl_c)">
		<path fill="#59A14F" d="M10 4L130.59547 4L130.59547 20L10 20L10 4Z"/>
	</g>
</g>
<g class="bar" id="path2d_canvas">
    <clipPath id="cl_d">
		<path d="M10 16L25.125 16L25.125 0L10 0L10 16ZM25.625 0L25.625 16L40.75 16L40.75 0L25.625 0ZM41.25 0L41.25 16L56.375 16L56.375 0L41.25 0ZM56.875 0L56.875 16L72 16L72 0L56.875 0ZM72.5 0L72.5 16L87.625 16L87.625 0L72.5 0ZM88.125 0L88.125 16L103.25 16L103.25 0L88.125 0ZM103.75 0L103.75 16L118.875 16L118.875 0L103.75 0ZM119.375 0L119.375 16L134.5 16L134.5 0L119.375 0ZM135 0L135 16L150.125 16L150.125 0L135 0ZM150.625 0L150.625 16L165.75 16L165.75 0L150.625 0ZM166.25 0L166.25 16L181.375 16L181.375 0L166.25 0ZM181.875 0L181.875 16L197 16L197 0L181.875 0ZM197.5 0L197.5 16L212.625 16L212.625 0L197.5 0ZM213.125 0L213.125 16L228.25 16L228.25 0L213.125 0ZM228.75 0L228.75 16L243.875 16L243.875 0L228.75 0ZM244.375 0L244.375 16L259.5 16L259.5 0L244.375 0Z" clip-rule="evenodd"/>
	</clipPath>
	<g clip-path="url(#cl_d)">
		<path fill="#E15759" d="M10 4L245.04094 4L245.04094 20L10 20L10 4Z"/>
	</g>
</g>
<g class="bar" id="path2d_napi">
    <clipPath id="cl_e">
		<path d="M10 16L25.125 16L25.125 0L10 0L10 16ZM25.625 0L25.625 16L40.75 16L40.75 0L25.625 0ZM41.25 0L41.25 16L56.375 16L56.375 0L41.25 0ZM56.875 0L56.875 16L72 16L72 0L56.875 0ZM72.5 0L72.5 16L87.625 16L87.625 0L72.5 0ZM88.125 0L88.125 16L103.25 16L103.25 0L88.125 0ZM103.75 0L103.75 16L118.875 16L118.875 0L103.75 0ZM119.375 0L119.375 16L134.5 16L134.5 0L119.375 0ZM135 0L135 16L150.125 16L150.125 0L135 0ZM150.625 0L150.625 16L165.75 16L165.75 0L150.625 0Z" clip-rule="evenodd"/>
	</clipPath>
	<g clip-path="url(#cl_e)">
		<path fill="#EDC949" d="M10 4L161.87297 4L161.87297 20L10 20L10 4Z"/>
	</g>
</g>
<g class="bar" id="path2d_skia-sync">
    <clipPath id="cl_f">
		<path d="M10 16L25.125 16L25.125 0L10 0L10 16ZM25.625 0L25.625 16L40.75 16L40.75 0L25.625 0ZM41.25 0L41.25 16L56.375 16L56.375 0L41.25 0ZM56.875 0L56.875 16L72 16L72 0L56.875 0ZM72.5 0L72.5 16L87.625 16L87.625 0L72.5 0ZM88.125 0L88.125 16L103.25 16L103.25 0L88.125 0ZM103.75 0L103.75 16L118.875 16L118.875 0L103.75 0ZM119.375 0L119.375 16L134.5 16L134.5 0L119.375 0Z" clip-rule="evenodd"/>
	</clipPath>
	<g clip-path="url(#cl_f)">
		<path fill="#4E79A7" d="M10 4L129.37033 4L129.37033 20L10 20L10 4Z"/>
	</g>
</g>
<g class="bar" id="path2d_skia-async">
    <clipPath id="cl_10">
		<path d="M10 16L25.125 16L25.125 0L10 0L10 16ZM25.625 0L25.625 16L40.75 16L40.75 0L25.625 0Z" clip-rule="evenodd"/>
	</clipPath>
	<g clip-path="url(#cl_10)">
		<path fill="#76B7B2" d="M10 4L31.865847 4L31.865847 20L10 20L10 4Z"/>
	</g>
</g>
<g class="bar" id="beziers_wasm">
    <clipPath id="cl_11">
		<path d="M10 16L25.125 16L25.125 0L10 0L10 16ZM25.625 0L25.625 16L40.75 16L40.75 0L25.625 0ZM41.25 0L41.25 16L56.375 16L56.375 0L41.25 0ZM56.875 0L56.875 16L72 16L72 0L56.875 0ZM72.5 0L72.5 16L87.625 16L87.625 0L72.5 0ZM88.125 0L88.125 16L103.25 16L103.25 0L88.125 0ZM103.75 0L103.75 16L118.875 16L118.875 0L103.75 0ZM119.375 0L119.375 16L134.5 16L134.5 0L119.375 0ZM135 0L135 16L150.125 16L150.125 0L135 0ZM150.625 0L150.625 16L165.75 16L165.75 0L150.625 0ZM166.25 0L166.25 16L181.375 16L181.375 0L166.25 0ZM181.875 0L181.875 16L197 16L197 0L181.875 0ZM197.5 0L197.5 16L212.625 16L212.625 0L197.5 0ZM213.125 0L213.125 16L228.25 16L228.25 0L213.125 0ZM228.75 0L228.75 16L243.875 16L243.875 0L228.75 0ZM244.375 0L244.375 16L259.5 16L259.5 0L244.375 0Z" clip-rule="evenodd"/>
	</clipPath>
	<g clip-path="url(#cl_11)">
		<path fill="#59A14F" d="M10 4L256.4007 4L256.4007 20L10 20L10 4Z"/>
	</g>
</g>
<g class="bar" id="beziers_canvas">
    <clipPath id="cl_12">
		<path d="M10 16L25.125 16L25.125 0L10 0L10 16ZM25.625 0L25.625 16L40.75 16L40.75 0L25.625 0ZM41.25 0L41.25 16L56.375 16L56.375 0L41.25 0ZM56.875 0L56.875 16L72 16L72 0L56.875 0ZM72.5 0L72.5 16L87.625 16L87.625 0L72.5 0ZM88.125 0L88.125 16L103.25 16L103.25 0L88.125 0ZM103.75 0L103.75 16L118.875 16L118.875 0L103.75 0ZM119.375 0L119.375 16L134.5 16L134.5 0L119.375 0ZM135 0L135 16L150.125 16L150.125 0L135 0ZM150.625 0L150.625 16L165.75 16L165.75 0L150.625 0Z" clip-rule="evenodd"/>
	</clipPath>
	<g clip-path="url(#cl_12)">
		<path fill="#E15759" d="M10 4L162.14516 4L162.14516 20L10 20L10 4Z"/>
	</g>
</g>
<g class="bar" id="beziers_napi">
    <clipPath id="cl_13">
		<path d="M10 16L25.125 16L25.125 0L10 0L10 16ZM25.625 0L25.625 16L40.75 16L40.75 0L25.625 0ZM41.25 0L41.25 16L56.375 16L56.375 0L41.25 0ZM56.875 0L56.875 16L72 16L72 0L56.875 0ZM72.5 0L72.5 16L87.625 16L87.625 0L72.5 0Z" clip-rule="evenodd"/>
	</clipPath>
	<g clip-path="url(#cl_13)">
		<path fill="#EDC949" d="M10 4L82.1548 4L82.1548 20L10 20L10 4Z"/>
	</g>
</g>
<g class="bar" id="beziers_skia-sync">
    <clipPath id="cl_14">
		<path d="M10 16L25.125 16L25.125 0L10 0L10 16ZM25.625 0L25.625 16L40.75 16L40.75 0L25.625 0ZM41.25 0L41.25 16L56.375 16L56.375 0L41.25 0Z" clip-rule="evenodd"/>
	</clipPath>
	<g clip-path="url(#cl_14)">
		<path fill="#4E79A7" d="M10 4L53.269741 4L53.269741 20L10 20L10 4Z"/>
	</g>
</g>
<g class="bar" id="beziers_skia-async">
    <clipPath id="cl_15">
		<rect x="10" width="15.125" height="16"/>
	</clipPath>
	<g clip-path="url(#cl_15)">
		<path fill="#76B7B2" d="M10 4L18.576088 4L18.576088 20L10 20L10 4Z"/>
	</g>
</g>
<g class="bar" id="from-svg_canvas">
    <clipPath id="cl_16">
		<path d="M10 16L25.125 16L25.125 0L10 0L10 16ZM25.625 0L25.625 16L40.75 16L40.75 0L25.625 0ZM41.25 0L41.25 16L56.375 16L56.375 0L41.25 0ZM56.875 0L56.875 16L72 16L72 0L56.875 0ZM72.5 0L72.5 16L87.625 16L87.625 0L72.5 0ZM88.125 0L88.125 16L103.25 16L103.25 0L88.125 0ZM103.75 0L103.75 16L118.875 16L118.875 0L103.75 0ZM119.375 0L119.375 16L134.5 16L134.5 0L119.375 0ZM135 0L135 16L150.125 16L150.125 0L135 0ZM150.625 0L150.625 16L165.75 16L165.75 0L150.625 0ZM166.25 0L166.25 16L181.375 16L181.375 0L166.25 0ZM181.875 0L181.875 16L197 16L197 0L181.875 0ZM197.5 0L197.5 16L212.625 16L212.625 0L197.5 0Z" clip-rule="evenodd"/>
	</clipPath>
	<g clip-path="url(#cl_16)">
		<path fill="#E15759" d="M10 4L200.59386 4L200.59386 20L10 20L10 4Z"/>
	</g>
</g>
<g class="bar" id="from-svg_napi">
    <clipPath id="cl_17">
		<path d="M10 16L25.125 16L25.125 0L10 0L10 16ZM25.625 0L25.625 16L40.75 16L40.75 0L25.625 0ZM41.25 0L41.25 16L56.375 16L56.375 0L41.25 0ZM56.875 0L56.875 16L72 16L72 0L56.875 0ZM72.5 0L72.5 16L87.625 16L87.625 0L72.5 0ZM88.125 0L88.125 16L103.25 16L103.25 0L88.125 0ZM103.75 0L103.75 16L118.875 16L118.875 0L103.75 0ZM119.375 0L119.375 16L134.5 16L134.5 0L119.375 0ZM135 0L135 16L150.125 16L150.125 0L135 0ZM150.625 0L150.625 16L165.75 16L165.75 0L150.625 0Z" clip-rule="evenodd"/>
	</clipPath>
	<g clip-path="url(#cl_17)">
		<path fill="#EDC949" d="M10 4L162.43713 4L162.43713 20L10 20L10 4Z"/>
	</g>
</g>
<g class="bar" id="from-svg_skia-sync">
    <clipPath id="cl_18">
		<path d="M10 16L25.125 16L25.125 0L10 0L10 16ZM25.625 0L25.625 16L40.75 16L40.75 0L25.625 0ZM41.25 0L41.25 16L56.375 16L56.375 0L41.25 0ZM56.875 0L56.875 16L72 16L72 0L56.875 0ZM72.5 0L72.5 16L87.625 16L87.625 0L72.5 0ZM88.125 0L88.125 16L103.25 16L103.25 0L88.125 0Z" clip-rule="evenodd"/>
	</clipPath>
	<g clip-path="url(#cl_18)">
		<path fill="#4E79A7" d="M10 4L103.06395 4L103.06395 20L10 20L10 4Z"/>
	</g>
</g>
<g class="bar" id="from-svg_skia-async">
    <clipPath id="cl_19">
		<path d="M10 16L25.125 16L25.125 0L10 0L10 16ZM25.625 0L25.625 16L40.75 16L40.75 0L25.625 0Z" clip-rule="evenodd"/>
	</clipPath>
	<g clip-path="url(#cl_19)">
		<path fill="#76B7B2" d="M10 4L26.662735 4L26.662735 20L10 20L10 4Z"/>
	</g>
</g>
<g class="bar" id="to-svg_canvas">
    <clipPath id="cl_1a">
		<path d="M10 16L25.125 16L25.125 0L10 0L10 16ZM25.625 0L25.625 16L40.75 16L40.75 0L25.625 0ZM41.25 0L41.25 16L56.375 16L56.375 0L41.25 0ZM56.875 0L56.875 16L72 16L72 0L56.875 0ZM72.5 0L72.5 16L87.625 16L87.625 0L72.5 0ZM88.125 0L88.125 16L103.25 16L103.25 0L88.125 0ZM103.75 0L103.75 16L118.875 16L118.875 0L103.75 0Z" clip-rule="evenodd"/>
	</clipPath>
	<g clip-path="url(#cl_1a)">
		<path fill="#E15759" d="M10 4L113.75577 4L113.75577 20L10 20L10 4Z"/>
	</g>
</g>
<g class="bar" id="to-svg_napi">
    <clipPath id="cl_1b">
		<path d="M10 16L25.125 16L25.125 0L10 0L10 16ZM25.625 0L25.625 16L40.75 16L40.75 0L25.625 0ZM41.25 0L41.25 16L56.375 16L56.375 0L41.25 0ZM56.875 0L56.875 16L72 16L72 0L56.875 0ZM72.5 0L72.5 16L87.625 16L87.625 0L72.5 0ZM88.125 0L88.125 16L103.25 16L103.25 0L88.125 0ZM103.75 0L103.75 16L118.875 16L118.875 0L103.75 0Z" clip-rule="evenodd"/>
	</clipPath>
	<g clip-path="url(#cl_1b)">
		<path fill="#EDC949" d="M10 4L118.98566 4L118.98566 20L10 20L10 4Z"/>
	</g>
</g>
<g class="bar" id="to-svg_skia-sync">
    <clipPath id="cl_1c">
		<rect x="10" width="15.125" height="16"/>
	</clipPath>
	<g clip-path="url(#cl_1c)">
		<path fill="#4E79A7" d="M10 4L21.267799 4L21.267799 20L10 20L10 4Z"/>
	</g>
</g>
<g class="bar" id="to-svg_skia-async">
    <clipPath id="cl_1d">
		<rect x="10" width="15.125" height="16"/>
	</clipPath>
	<g clip-path="url(#cl_1d)">
		<path fill="#76B7B2" d="M10 4L19.887859 4L19.887859 20L10 20L10 4Z"/>
	</g>
</g>
<g class="bar" id="to-pdf_canvas">
    <clipPath id="cl_1e">
		<path d="M10 16L25.125 16L25.125 0L10 0L10 16ZM25.625 0L25.625 16L40.75 16L40.75 0L25.625 0ZM41.25 0L41.25 16L56.375 16L56.375 0L41.25 0ZM56.875 0L56.875 16L72 16L72 0L56.875 0ZM72.5 0L72.5 16L87.625 16L87.625 0L72.5 0ZM88.125 0L88.125 16L103.25 16L103.25 0L88.125 0Z" clip-rule="evenodd"/>
	</clipPath>
	<g clip-path="url(#cl_1e)">
		<path fill="#E15759" d="M10 4L95.180435 4L95.180435 20L10 20L10 4Z"/>
	</g>
</g>
<g class="bar" id="to-pdf_skia-sync">
    <clipPath id="cl_1f">
		<rect x="10" width="15.125" height="16"/>
	</clipPath>
	<g clip-path="url(#cl_1f)">
		<path fill="#4E79A7" d="M10 4L24.944717 4L24.944717 20L10 20L10 4Z"/>
	</g>
</g>
<g class="bar" id="to-pdf_skia-async">
    <clipPath id="cl_20">
		<rect x="10" width="15.125" height="16"/>
	</clipPath>
	<g clip-path="url(#cl_20)">
		<path fill="#76B7B2" d="M10 4L14.868326 4L14.868326 20L10 20L10 4Z"/>
	</g>
</g>
<g class="bar" id="image-blit_wasm">
    <clipPath id="cl_21">
		<path d="M10 16L25.125 16L25.125 0L10 0L10 16ZM25.625 0L25.625 16L40.75 16L40.75 0L25.625 0ZM41.25 0L41.25 16L56.375 16L56.375 0L41.25 0ZM56.875 0L56.875 16L72 16L72 0L56.875 0ZM72.5 0L72.5 16L87.625 16L87.625 0L72.5 0ZM88.125 0L88.125 16L103.25 16L103.25 0L88.125 0ZM103.75 0L103.75 16L118.875 16L118.875 0L103.75 0ZM119.375 0L119.375 16L134.5 16L134.5 0L119.375 0ZM135 0L135 16L150.125 16L150.125 0L135 0ZM150.625 0L150.625 16L165.75 16L165.75 0L150.625 0ZM166.25 0L166.25 16L181.375 16L181.375 0L166.25 0ZM181.875 0L181.875 16L197 16L197 0L181.875 0ZM197.5 0L197.5 16L212.625 16L212.625 0L197.5 0ZM213.125 0L213.125 16L228.25 16L228.25 0L213.125 0Z" clip-rule="evenodd"/>
	</clipPath>
	<g clip-path="url(#cl_21)">
		<path fill="#59A14F" d="M10 4L225.14677 4L225.14677 20L10 20L10 4Z"/>
	</g>
</g>
<g class="bar" id="image-blit_canvas">
    <clipPath id="cl_22">
		<path d="M10 16L25.125 16L25.125 0L10 0L10 16ZM25.625 0L25.625 16L40.75 16L40.75 0L25.625 0ZM41.25 0L41.25 16L56.375 16L56.375 0L41.25 0ZM56.875 0L56.875 16L72 16L72 0L56.875 0ZM72.5 0L72.5 16L87.625 16L87.625 0L72.5 0ZM88.125 0L88.125 16L103.25 16L103.25 0L88.125 0ZM103.75 0L103.75 16L118.875 16L118.875 0L103.75 0ZM119.375 0L119.375 16L134.5 16L134.5 0L119.375 0ZM135 0L135 16L150.125 16L150.125 0L135 0ZM150.625 0L150.625 16L165.75 16L165.75 0L150.625 0ZM166.25 0L166.25 16L181.375 16L181.375 0L166.25 0ZM181.875 0L181.875 16L197 16L197 0L181.875 0ZM197.5 0L197.5 16L212.625 16L212.625 0L197.5 0ZM213.125 0L213.125 16L228.25 16L228.25 0L213.125 0ZM228.75 0L228.75 16L243.875 16L243.875 0L228.75 0Z" clip-rule="evenodd"/>
	</clipPath>
	<g clip-path="url(#cl_22)">
		<path fill="#E15759" d="M10 4L232.52957 4L232.52957 20L10 20L10 4Z"/>
	</g>
</g>
<g class="bar" id="image-blit_napi">
    <clipPath id="cl_23">
		<path d="M10 16L25.125 16L25.125 0L10 0L10 16ZM25.625 0L25.625 16L40.75 16L40.75 0L25.625 0ZM41.25 0L41.25 16L56.375 16L56.375 0L41.25 0ZM56.875 0L56.875 16L72 16L72 0L56.875 0ZM72.5 0L72.5 16L87.625 16L87.625 0L72.5 0ZM88.125 0L88.125 16L103.25 16L103.25 0L88.125 0Z" clip-rule="evenodd"/>
	</clipPath>
	<g clip-path="url(#cl_23)">
		<path fill="#EDC949" d="M10 4L100.66965 4L100.66965 20L10 20L10 4Z"/>
	</g>
</g>
<g class="bar" id="image-blit_skia-sync">
    <clipPath id="cl_24">
		<path d="M10 16L25.125 16L25.125 0L10 0L10 16ZM25.625 0L25.625 16L40.75 16L40.75 0L25.625 0ZM41.25 0L41.25 16L56.375 16L56.375 0L41.25 0ZM56.875 0L56.875 16L72 16L72 0L56.875 0ZM72.5 0L72.5 16L87.625 16L87.625 0L72.5 0ZM88.125 0L88.125 16L103.25 16L103.25 0L88.125 0Z" clip-rule="evenodd"/>
	</clipPath>
	<g clip-path="url(#cl_24)">
		<path fill="#4E79A7" d="M10 4L88.637009 4L88.637009 20L10 20L10 4Z"/>
	</g>
</g>
<g class="bar" id="image-blit_skia-async">
    <clipPath id="cl_25">
		<rect x="10" width="15.125" height="16"/>
	</clipPath>
	<g clip-path="url(#cl_25)">
		<path fill="#76B7B2" d="M10 4L24.718281 4L24.718281 20L10 20L10 4Z"/>
	</g>
</g>
<g class="bar" id="image-rw_canvas">
    <clipPath id="cl_26">
		<path d="M10 16L25.125 16L25.125 0L10 0L10 16ZM25.625 0L25.625 16L40.75 16L40.75 0L25.625 0ZM41.25 0L41.25 16L56.375 16L56.375 0L41.25 0ZM56.875 0L56.875 16L72 16L72 0L56.875 0ZM72.5 0L72.5 16L87.625 16L87.625 0L72.5 0ZM88.125 0L88.125 16L103.25 16L103.25 0L88.125 0ZM103.75 0L103.75 16L118.875 16L118.875 0L103.75 0ZM119.375 0L119.375 16L134.5 16L134.5 0L119.375 0ZM135 0L135 16L150.125 16L150.125 0L135 0ZM150.625 0L150.625 16L165.75 16L165.75 0L150.625 0ZM166.25 0L166.25 16L181.375 16L181.375 0L166.25 0Z" clip-rule="evenodd"/>
	</clipPath>
	<g clip-path="url(#cl_26)">
		<path fill="#E15759" d="M10 4L171.78365 4L171.78365 20L10 20L10 4Z"/>
	</g>
</g>
<g class="bar" id="image-rw_napi">
    <clipPath id="cl_27">
		<path d="M10 16L25.125 16L25.125 0L10 0L10 16ZM25.625 0L25.625 16L40.75 16L40.75 0L25.625 0ZM41.25 0L41.25 16L56.375 16L56.375 0L41.25 0ZM56.875 0L56.875 16L72 16L72 0L56.875 0ZM72.5 0L72.5 16L87.625 16L87.625 0L72.5 0ZM88.125 0L88.125 16L103.25 16L103.25 0L88.125 0ZM103.75 0L103.75 16L118.875 16L118.875 0L103.75 0Z" clip-rule="evenodd"/>
	</clipPath>
	<g clip-path="url(#cl_27)">
		<path fill="#EDC949" d="M10 4L108.47069 4L108.47069 20L10 20L10 4Z"/>
	</g>
</g>
<g class="bar" id="image-rw_skia-sync">
    <clipPath id="cl_28">
		<path d="M10 16L25.125 16L25.125 0L10 0L10 16ZM25.625 0L25.625 16L40.75 16L40.75 0L25.625 0ZM41.25 0L41.25 16L56.375 16L56.375 0L41.25 0ZM56.875 0L56.875 16L72 16L72 0L56.875 0ZM72.5 0L72.5 16L87.625 16L87.625 0L72.5 0ZM88.125 0L88.125 16L103.25 16L103.25 0L88.125 0ZM103.75 0L103.75 16L118.875 16L118.875 0L103.75 0ZM119.375 0L119.375 16L134.5 16L134.5 0L119.375 0ZM135 0L135 16L150.125 16L150.125 0L135 0ZM150.625 0L150.625 16L165.75 16L165.75 0L150.625 0Z" clip-rule="evenodd"/>
	</clipPath>
	<g clip-path="url(#cl_28)">
		<path fill="#4E79A7" d="M10 4L166.21352 4L166.21352 20L10 20L10 4Z"/>
	</g>
</g>
<g class="bar" id="image-rw_skia-async">
    <clipPath id="cl_29">
		<path d="M10 16L25.125 16L25.125 0L10 0L10 16ZM25.625 0L25.625 16L40.75 16L40.75 0L25.625 0ZM41.25 0L41.25 16L56.375 16L56.375 0L41.25 0ZM56.875 0L56.875 16L72 16L72 0L56.875 0ZM72.5 0L72.5 16L87.625 16L87.625 0L72.5 0ZM88.125 0L88.125 16L103.25 16L103.25 0L88.125 0ZM103.75 0L103.75 16L118.875 16L118.875 0L103.75 0ZM119.375 0L119.375 16L134.5 16L134.5 0L119.375 0ZM135 0L135 16L150.125 16L150.125 0L135 0Z" clip-rule="evenodd"/>
	</clipPath>
	<g clip-path="url(#cl_29)">
		<path fill="#76B7B2" d="M10 4L141.57733 4L141.57733 20L10 20L10 4Z"/>
	</g>
</g>
<g class="bar" id="gradients_wasm">
    <clipPath id="cl_2a">
		<path d="M10 16L25.125 16L25.125 0L10 0L10 16ZM25.625 0L25.625 16L40.75 16L40.75 0L25.625 0ZM41.25 0L41.25 16L56.375 16L56.375 0L41.25 0ZM56.875 0L56.875 16L72 16L72 0L56.875 0ZM72.5 0L72.5 16L87.625 16L87.625 0L72.5 0ZM88.125 0L88.125 16L103.25 16L103.25 0L88.125 0ZM103.75 0L103.75 16L118.875 16L118.875 0L103.75 0ZM119.375 0L119.375 16L134.5 16L134.5 0L119.375 0ZM135 0L135 16L150.125 16L150.125 0L135 0ZM150.625 0L150.625 16L165.75 16L165.75 0L150.625 0ZM166.25 0L166.25 16L181.375 16L181.375 0L166.25 0ZM181.875 0L181.875 16L197 16L197 0L181.875 0ZM197.5 0L197.5 16L212.625 16L212.625 0L197.5 0ZM213.125 0L213.125 16L228.25 16L228.25 0L213.125 0ZM228.75 0L228.75 16L243.875 16L243.875 0L228.75 0Z" clip-rule="evenodd"/>
	</clipPath>
	<g clip-path="url(#cl_2a)">
		<path fill="#59A14F" d="M10 4L235.21681 4L235.21681 20L10 20L10 4Z"/>
	</g>
</g>
<g class="bar" id="gradients_canvas">
    <clipPath id="cl_2b">
		<path d="M10 16L25.125 16L25.125 0L10 0L10 16ZM25.625 0L25.625 16L40.75 16L40.75 0L25.625 0ZM41.25 0L41.25 16L56.375 16L56.375 0L41.25 0ZM56.875 0L56.875 16L72 16L72 0L56.875 0ZM72.5 0L72.5 16L87.625 16L87.625 0L72.5 0ZM88.125 0L88.125 16L103.25 16L103.25 0L88.125 0ZM103.75 0L103.75 16L118.875 16L118.875 0L103.75 0ZM119.375 0L119.375 16L134.5 16L134.5 0L119.375 0Z" clip-rule="evenodd"/>
	</clipPath>
	<g clip-path="url(#cl_2b)">
		<path fill="#E15759" d="M10 4L131.49536 4L131.49536 20L10 20L10 4Z"/>
	</g>
</g>
<g class="bar" id="gradients_napi">
    <clipPath id="cl_2c">
		<path d="M10 16L25.125 16L25.125 0L10 0L10 16ZM25.625 0L25.625 16L40.75 16L40.75 0L25.625 0ZM41.25 0L41.25 16L56.375 16L56.375 0L41.25 0ZM56.875 0L56.875 16L72 16L72 0L56.875 0ZM72.5 0L72.5 16L87.625 16L87.625 0L72.5 0ZM88.125 0L88.125 16L103.25 16L103.25 0L88.125 0ZM103.75 0L103.75 16L118.875 16L118.875 0L103.75 0Z" clip-rule="evenodd"/>
	</clipPath>
	<g clip-path="url(#cl_2c)">
		<path fill="#EDC949" d="M10 4L118.22006 4L118.22006 20L10 20L10 4Z"/>
	</g>
</g>
<g class="bar" id="gradients_skia-sync">
    <clipPath id="cl_2d">
		<path d="M10 16L25.125 16L25.125 0L10 0L10 16ZM25.625 0L25.625 16L40.75 16L40.75 0L25.625 0ZM41.25 0L41.25 16L56.375 16L56.375 0L41.25 0ZM56.875 0L56.875 16L72 16L72 0L56.875 0ZM72.5 0L72.5 16L87.625 16L87.625 0L72.5 0ZM88.125 0L88.125 16L103.25 16L103.25 0L88.125 0ZM103.75 0L103.75 16L118.875 16L118.875 0L103.75 0ZM119.375 0L119.375 16L134.5 16L134.5 0L119.375 0Z" clip-rule="evenodd"/>
	</clipPath>
	<g clip-path="url(#cl_2d)">
		<path fill="#4E79A7" d="M10 4L128.40445 4L128.40445 20L10 20L10 4Z"/>
	</g>
</g>
<g class="bar" id="gradients_skia-async">
    <clipPath id="cl_2e">
		<path d="M10 16L25.125 16L25.125 0L10 0L10 16ZM25.625 0L25.625 16L40.75 16L40.75 0L25.625 0Z" clip-rule="evenodd"/>
	</clipPath>
	<g clip-path="url(#cl_2e)">
		<path fill="#76B7B2" d="M10 4L31.228823 4L31.228823 20L10 20L10 4Z"/>
	</g>
</g>
<g class="bar" id="text_wasm">
    <clipPath id="cl_2f">
		<path d="M10 16L25.125 16L25.125 0L10 0L10 16ZM25.625 0L25.625 16L40.75 16L40.75 0L25.625 0ZM41.25 0L41.25 16L56.375 16L56.375 0L41.25 0ZM56.875 0L56.875 16L72 16L72 0L56.875 0ZM72.5 0L72.5 16L87.625 16L87.625 0L72.5 0Z" clip-rule="evenodd"/>
	</clipPath>
	<g clip-path="url(#cl_2f)">
		<path fill="#59A14F" d="M10 4L83.882149 4L83.882149 20L10 20L10 4Z"/>
	</g>
</g>
<g class="bar" id="text_canvas">
    <clipPath id="cl_30">
		<path d="M10 16L25.125 16L25.125 0L10 0L10 16ZM25.625 0L25.625 16L40.75 16L40.75 0L25.625 0ZM41.25 0L41.25 16L56.375 16L56.375 0L41.25 0ZM56.875 0L56.875 16L72 16L72 0L56.875 0ZM72.5 0L72.5 16L87.625 16L87.625 0L72.5 0Z" clip-rule="evenodd"/>
	</clipPath>
	<g clip-path="url(#cl_30)">
		<path fill="#E15759" d="M10 4L86.048599 4L86.048599 20L10 20L10 4Z"/>
	</g>
</g>
<g class="bar" id="text_napi">
    <clipPath id="cl_31">
		<path d="M10 16L25.125 16L25.125 0L10 0L10 16ZM25.625 0L25.625 16L40.75 16L40.75 0L25.625 0ZM41.25 0L41.25 16L56.375 16L56.375 0L41.25 0ZM56.875 0L56.875 16L72 16L72 0L56.875 0Z" clip-rule="evenodd"/>
	</clipPath>
	<g clip-path="url(#cl_31)">
		<path fill="#EDC949" d="M10 4L69.855621 4L69.855621 20L10 20L10 4Z"/>
	</g>
</g>
<g class="bar" id="text_skia-sync">
    <clipPath id="cl_32">
		<path d="M10 16L25.125 16L25.125 0L10 0L10 16ZM25.625 0L25.625 16L40.75 16L40.75 0L25.625 0ZM41.25 0L41.25 16L56.375 16L56.375 0L41.25 0ZM56.875 0L56.875 16L72 16L72 0L56.875 0ZM72.5 0L72.5 16L87.625 16L87.625 0L72.5 0Z" clip-rule="evenodd"/>
	</clipPath>
	<g clip-path="url(#cl_32)">
		<path fill="#4E79A7" d="M10 4L76.914276 4L76.914276 20L10 20L10 4Z"/>
	</g>
</g>
<g class="bar" id="text_skia-async">
    <clipPath id="cl_33">
		<rect x="10" width="15.125" height="16"/>
	</clipPath>
	<g clip-path="url(#cl_33)">
		<path fill="#76B7B2" d="M10 4L22.665001 4L22.665001 20L10 20L10 4Z"/>
	</g>
</g>
      </svg>