<?xml version="1.0" encoding="utf-8" ?>
<svg xmlns="http://www.w3.org/2000/svg" xmlns:xlink="http://www.w3.org/1999/xlink" width="168" height="168">
	<rect fill="#2A2A2A" width="168" height="168"/>
	<path fill="#FFA500" fill-opacity="0.69803923" transform="matrix(0.7 0 0 0.7 14 14)" d="M200 100Q200 102.455 199.88 104.907Q199.759 107.359 199.518 109.802Q199.278 112.245 198.918 114.673Q198.557 117.101 198.079 119.509Q197.6 121.917 197.003 124.298Q196.407 126.679 195.694 129.028Q194.981 131.378 194.154 133.689Q193.327 136 192.388 138.268Q191.448 140.536 190.399 142.755Q189.349 144.975 188.192 147.14Q187.035 149.305 185.773 151.41Q184.511 153.516 183.147 155.557Q181.783 157.598 180.321 159.57Q178.858 161.542 177.301 163.439Q175.744 165.337 174.095 167.156Q172.447 168.975 170.711 170.711Q168.975 172.447 167.156 174.095Q165.337 175.744 163.439 177.301Q161.542 178.858 159.57 180.321Q157.598 181.783 155.557 183.147Q153.516 184.511 151.41 185.773Q149.305 187.035 147.14 188.192Q144.975 189.349 142.755 190.399Q140.536 191.448 138.268 192.388Q136 193.327 133.689 194.154Q131.378 194.981 129.028 195.694Q126.679 196.407 124.298 197.003Q121.917 197.6 119.509 198.079Q117.101 198.557 114.673 198.918Q112.245 199.278 109.802 199.518Q107.359 199.759 104.907 199.88Q102.455 200 100 200Q97.5451 200 95.0932 199.88Q92.6413 199.759 90.1983 199.518Q87.7552 199.278 85.3269 198.918Q82.8987 198.557 80.491 198.079Q78.0833 197.6 75.702 197.003Q73.3207 196.407 70.9715 195.694Q68.6224 194.981 66.311 194.154Q63.9996 193.327 61.7317 192.388Q59.4637 191.448 57.2445 190.399Q55.0253 189.349 52.8603 188.192Q50.6953 187.035 48.5897 185.773Q46.4841 184.511 44.443 183.147Q42.4018 181.783 40.4301 180.321Q38.4583 178.858 36.5607 177.301Q34.663 175.744 32.8441 174.095Q31.0252 172.447 29.2893 170.711Q27.5535 168.975 25.9049 167.156Q24.2563 165.337 22.699 163.439Q21.1416 161.542 19.6792 159.57Q18.2169 157.598 16.853 155.557Q15.4892 153.516 14.2271 151.41Q12.9651 149.305 11.8079 147.14Q10.6507 144.975 9.60107 142.755Q8.55148 140.536 7.61205 138.268Q6.67261 136 5.84559 133.689Q5.01857 131.378 4.30597 129.028Q3.59336 126.679 2.99687 124.298Q2.40039 121.917 1.92147 119.509Q1.44255 117.101 1.08235 114.673Q0.722146 112.245 0.481527 109.802Q0.240909 107.359 0.120454 104.907Q0 102.455 0 100Q0 97.5451 0.120454 95.0932Q0.240909 92.6413 0.481527 90.1983Q0.722146 87.7552 1.08235 85.3269Q1.44255 82.8987 1.92147 80.491Q2.40039 78.0833 2.99687 75.702Q3.59336 73.3207 4.30597 70.9715Q5.01857 68.6224 5.84559 66.311Q6.67261 63.9996 7.61205 61.7317Q8.55148 59.4637 9.60107 57.2445Q10.6507 55.0253 11.8079 52.8603Q12.9651 50.6953 14.2271 48.5897Q15.4892 46.4841 16.853 44.443Q18.2169 42.4018 19.6792 40.4301Q21.1416 38.4583 22.699 36.5607Q24.2563 34.663 25.9049 32.8441Q27.5535 31.0252 29.2893 29.2893Q31.0252 27.5535 32.8441 25.9049Q34.663 24.2563 36.5607 22.699Q38.4583 21.1416 40.4301 19.6792Q42.4018 18.2169 44.443 16.853Q46.4841 15.4892 48.5897 14.2271Q50.6953 12.9651 52.8603 11.8079Q55.0253 10.6507 57.2445 9.60107Q59.4637 8.55148 61.7316 7.61205Q63.9996 6.67261 66.311 5.84559Q68.6224 5.01857 70.9715 4.30597Q73.3207 3.59336 75.702 2.99687Q78.0833 2.40039 80.491 1.92147Q82.8987 1.44255 85.3269 1.08235Q87.7552 0.722146 90.1983 0.481527Q92.6413 0.240909 95.0932 0.120454Q97.5451 0 100 0Q102.455 0 104.907 0.120454Q107.359 0.240909 109.802 0.481527Q112.245 0.722146 114.673 1.08235Q117.101 1.44255 119.509 1.92147Q121.917 2.40039 124.298 2.99687Q126.679 3.59336 129.028 4.30597Q131.378 5.01857 133.689 5.84559Q136 6.67261 138.268 7.61205Q140.536 8.55148 142.755 9.60107Q144.975 10.6507 147.14 11.8079Q149.305 12.9651 151.41 14.2271Q153.516 15.4892 155.557 16.853Q157.598 18.2169 159.57 19.6792Q161.542 21.1416 163.439 22.699Q165.337 24.2563 167.156 25.9049Q168.975 27.5535 170.711 29.2893Q172.447 31.0252 174.095 32.8441Q175.744 34.663 177.301 36.5607Q178.858 38.4583 180.321 40.4301Q181.783 42.4018 183.147 44.443Q184.511 46.4841 185.773 48.5897Q187.035 50.6953 188.192 52.8603Q189.349 55.0253 190.399 57.2445Q191.448 59.4637 192.388 61.7316Q193.327 63.9996 194.154 66.311Q194.981 68.6224 195.694 70.9715Q196.407 73.3207 197.003 75.702Q197.6 78.0833 198.079 80.491Q198.557 82.8987 198.918 85.3269Q199.278 87.7552 199.518 90.1983Q199.759 92.6413 199.88 95.0932Q200 97.5451 200 100"/>
	<path fill="red" fill-opacity="0.69803923" transform="matrix(0.7 0 0 0.7 14 14)" d="M0 100L100 100L100 200L0 200L0 100Z"/>
</svg>
